<?xml version="1.0" encoding="UTF-8" standalone="no"?>
<!DOCTYPE svg PUBLIC "-//W3C//DTD SVG 1.1//EN"
 "http://www.w3.org/Graphics/SVG/1.1/DTD/svg11.dtd">
<!-- Generated by graphviz version 2.40.1 (0)
 -->
<!-- Title: ./main; 252 samples Pages: 1 -->
<svg width="100%" height="100%"
  xmlns="http://www.w3.org/2000/svg" xmlns:xlink="http://www.w3.org/1999/xlink">
<script type="text/ecmascript"><![CDATA[
// SVGPan
// http://www.cyberz.org/blog/2009/12/08/svgpan-a-javascript-svg-panzoomdrag-library/
// Local modification: if(true || ...) below to force panning, never moving.

/**
 *  SVGPan library 1.2
 * ====================
 *
 * Given an unique existing element with id "viewport", including the
 * the library into any SVG adds the following capabilities:
 *
 *  - Mouse panning
 *  - Mouse zooming (using the wheel)
 *  - Object dargging
 *
 * Known issues:
 *
 *  - Zooming (while panning) on Safari has still some issues
 *
 * Releases:
 *
 * 1.2, Sat Mar 20 08:42:50 GMT 2010, Zeng Xiaohui
 *	Fixed a bug with browser mouse handler interaction
 *
 * 1.1, Wed Feb  3 17:39:33 GMT 2010, Zeng Xiaohui
 *	Updated the zoom code to support the mouse wheel on Safari/Chrome
 *
 * 1.0, Andrea Leofreddi
 *	First release
 *
 * This code is licensed under the following BSD license:
 *
 * Copyright 2009-2010 Andrea Leofreddi <a.leofreddi@itcharm.com>. All rights reserved.
 *
 * Redistribution and use in source and binary forms, with or without modification, are
 * permitted provided that the following conditions are met:
 *
 *    1. Redistributions of source code must retain the above copyright notice, this list of
 *       conditions and the following disclaimer.
 *
 *    2. Redistributions in binary form must reproduce the above copyright notice, this list
 *       of conditions and the following disclaimer in the documentation and/or other materials
 *       provided with the distribution.
 *
 * THIS SOFTWARE IS PROVIDED BY Andrea Leofreddi ``AS IS'' AND ANY EXPRESS OR IMPLIED
 * WARRANTIES, INCLUDING, BUT NOT LIMITED TO, THE IMPLIED WARRANTIES OF MERCHANTABILITY AND
 * FITNESS FOR A PARTICULAR PURPOSE ARE DISCLAIMED. IN NO EVENT SHALL Andrea Leofreddi OR
 * CONTRIBUTORS BE LIABLE FOR ANY DIRECT, INDIRECT, INCIDENTAL, SPECIAL, EXEMPLARY, OR
 * CONSEQUENTIAL DAMAGES (INCLUDING, BUT NOT LIMITED TO, PROCUREMENT OF SUBSTITUTE GOODS OR
 * SERVICES; LOSS OF USE, DATA, OR PROFITS; OR BUSINESS INTERRUPTION) HOWEVER CAUSED AND ON
 * ANY THEORY OF LIABILITY, WHETHER IN CONTRACT, STRICT LIABILITY, OR TORT (INCLUDING
 * NEGLIGENCE OR OTHERWISE) ARISING IN ANY WAY OUT OF THE USE OF THIS SOFTWARE, EVEN IF
 * ADVISED OF THE POSSIBILITY OF SUCH DAMAGE.
 *
 * The views and conclusions contained in the software and documentation are those of the
 * authors and should not be interpreted as representing official policies, either expressed
 * or implied, of Andrea Leofreddi.
 */

var root = document.documentElement;

var state = 'none', stateTarget, stateOrigin, stateTf;

setupHandlers(root);

/**
 * Register handlers
 */
function setupHandlers(root){
	setAttributes(root, {
		"onmouseup" : "add(evt)",
		"onmousedown" : "handleMouseDown(evt)",
		"onmousemove" : "handleMouseMove(evt)",
		"onmouseup" : "handleMouseUp(evt)",
		//"onmouseout" : "handleMouseUp(evt)", // Decomment this to stop the pan functionality when dragging out of the SVG element
	});

	if(navigator.userAgent.toLowerCase().indexOf('webkit') >= 0)
		window.addEventListener('mousewheel', handleMouseWheel, false); // Chrome/Safari
	else
		window.addEventListener('DOMMouseScroll', handleMouseWheel, false); // Others

	var g = svgDoc.getElementById("svg");
	g.width = "100%";
	g.height = "100%";
}

/**
 * Instance an SVGPoint object with given event coordinates.
 */
function getEventPoint(evt) {
	var p = root.createSVGPoint();

	p.x = evt.clientX;
	p.y = evt.clientY;

	return p;
}

/**
 * Sets the current transform matrix of an element.
 */
function setCTM(element, matrix) {
	var s = "matrix(" + matrix.a + "," + matrix.b + "," + matrix.c + "," + matrix.d + "," + matrix.e + "," + matrix.f + ")";

	element.setAttribute("transform", s);
}

/**
 * Dumps a matrix to a string (useful for debug).
 */
function dumpMatrix(matrix) {
	var s = "[ " + matrix.a + ", " + matrix.c + ", " + matrix.e + "\n  " + matrix.b + ", " + matrix.d + ", " + matrix.f + "\n  0, 0, 1 ]";

	return s;
}

/**
 * Sets attributes of an element.
 */
function setAttributes(element, attributes){
	for (i in attributes)
		element.setAttributeNS(null, i, attributes[i]);
}

/**
 * Handle mouse move event.
 */
function handleMouseWheel(evt) {
	if(evt.preventDefault)
		evt.preventDefault();

	evt.returnValue = false;

	var svgDoc = evt.target.ownerDocument;

	var delta;

	if(evt.wheelDelta)
		delta = evt.wheelDelta / 3600; // Chrome/Safari
	else
		delta = evt.detail / -90; // Mozilla

	var z = 1 + delta; // Zoom factor: 0.9/1.1

	var g = svgDoc.getElementById("viewport");

	var p = getEventPoint(evt);

	p = p.matrixTransform(g.getCTM().inverse());

	// Compute new scale matrix in current mouse position
	var k = root.createSVGMatrix().translate(p.x, p.y).scale(z).translate(-p.x, -p.y);

        setCTM(g, g.getCTM().multiply(k));

	stateTf = stateTf.multiply(k.inverse());
}

/**
 * Handle mouse move event.
 */
function handleMouseMove(evt) {
	if(evt.preventDefault)
		evt.preventDefault();

	evt.returnValue = false;

	var svgDoc = evt.target.ownerDocument;

	var g = svgDoc.getElementById("viewport");

	if(state == 'pan') {
		// Pan mode
		var p = getEventPoint(evt).matrixTransform(stateTf);

		setCTM(g, stateTf.inverse().translate(p.x - stateOrigin.x, p.y - stateOrigin.y));
	} else if(state == 'move') {
		// Move mode
		var p = getEventPoint(evt).matrixTransform(g.getCTM().inverse());

		setCTM(stateTarget, root.createSVGMatrix().translate(p.x - stateOrigin.x, p.y - stateOrigin.y).multiply(g.getCTM().inverse()).multiply(stateTarget.getCTM()));

		stateOrigin = p;
	}
}

/**
 * Handle click event.
 */
function handleMouseDown(evt) {
	if(evt.preventDefault)
		evt.preventDefault();

	evt.returnValue = false;

	var svgDoc = evt.target.ownerDocument;

	var g = svgDoc.getElementById("viewport");

	if(true || evt.target.tagName == "svg") {
		// Pan mode
		state = 'pan';

		stateTf = g.getCTM().inverse();

		stateOrigin = getEventPoint(evt).matrixTransform(stateTf);
	} else {
		// Move mode
		state = 'move';

		stateTarget = evt.target;

		stateTf = g.getCTM().inverse();

		stateOrigin = getEventPoint(evt).matrixTransform(stateTf);
	}
}

/**
 * Handle mouse button release event.
 */
function handleMouseUp(evt) {
	if(evt.preventDefault)
		evt.preventDefault();

	evt.returnValue = false;

	var svgDoc = evt.target.ownerDocument;

	if(state == 'pan' || state == 'move') {
		// Quit pan mode
		state = '';
	}
}

]]></script>
<g id="viewport" transform="translate(0,0)">
<g id="viewport" class="graph" transform="scale(1 1) rotate(0) translate(4 1839)">
<title>./main; 252 samples</title>
<polygon fill="#ffffff" stroke="transparent" points="-4,4 -4,-1839 1063.5,-1839 1063.5,4 -4,4"/>
<!-- Legend -->
<g id="node1" class="node">
<title>Legend</title>
<text text-anchor="start" x="8" y="-1811.8" font-family="Times,serif" font-size="24.00" fill="#000000">./main</text>
<text text-anchor="start" x="8" y="-1785.8" font-family="Times,serif" font-size="24.00" fill="#000000">Total samples: 252</text>
<text text-anchor="start" x="8" y="-1759.8" font-family="Times,serif" font-size="24.00" fill="#000000">Focusing on: 252</text>
<text text-anchor="start" x="8" y="-1733.8" font-family="Times,serif" font-size="24.00" fill="#000000">Dropped nodes with &lt;= 1 abs(samples)</text>
<text text-anchor="start" x="8" y="-1707.8" font-family="Times,serif" font-size="24.00" fill="#000000">Dropped edges with &lt;= 0 samples</text>
</g>
<!-- N1 -->
<g id="node2" class="node">
<title>N1</title>
<polygon fill="none" stroke="#000000" points="482,-1646 408,-1646 408,-1611 482,-1611 482,-1646"/>
<text text-anchor="middle" x="445" y="-1635.6" font-family="Times,serif" font-size="8.00" fill="#000000">__libc_start_main</text>
<text text-anchor="end" x="474" y="-1626.6" font-family="Times,serif" font-size="8.00" fill="#000000">0 (0.0%)</text>
<text text-anchor="end" x="474" y="-1617.6" font-family="Times,serif" font-size="8.00" fill="#000000">of 252 (100.0%)</text>
</g>
<!-- N3 -->
<g id="node4" class="node">
<title>N3</title>
<polygon fill="none" stroke="#000000" points="479.5,-1560 410.5,-1560 410.5,-1525 479.5,-1525 479.5,-1560"/>
<text text-anchor="middle" x="445" y="-1549.6" font-family="Times,serif" font-size="8.00" fill="#000000">main</text>
<text text-anchor="end" x="471.5" y="-1540.6" font-family="Times,serif" font-size="8.00" fill="#000000">0 (0.0%)</text>
<text text-anchor="end" x="471.5" y="-1531.6" font-family="Times,serif" font-size="8.00" fill="#000000">of 252 (100.0%)</text>
</g>
<!-- N1&#45;&gt;N3 -->
<g id="edge3" class="edge">
<title>N1&#45;&gt;N3</title>
<path fill="none" stroke="#000000" stroke-width="2" d="M445,-1610.6807C445,-1598.9568 445,-1583.3768 445,-1570.0697"/>
<polygon fill="#000000" stroke="#000000" stroke-width="2" points="448.5001,-1570.0021 445,-1560.0022 441.5001,-1570.0022 448.5001,-1570.0021"/>
<text text-anchor="middle" x="455.5" y="-1581.8" font-family="Times,serif" font-size="14.00" fill="#000000">252</text>
</g>
<!-- N2 -->
<g id="node3" class="node">
<title>N2</title>
<polygon fill="none" stroke="#000000" points="479.5,-1783.5 410.5,-1783.5 410.5,-1748.5 479.5,-1748.5 479.5,-1783.5"/>
<text text-anchor="middle" x="445" y="-1773.1" font-family="Times,serif" font-size="8.00" fill="#000000">_start</text>
<text text-anchor="end" x="471.5" y="-1764.1" font-family="Times,serif" font-size="8.00" fill="#000000">0 (0.0%)</text>
<text text-anchor="end" x="471.5" y="-1755.1" font-family="Times,serif" font-size="8.00" fill="#000000">of 252 (100.0%)</text>
</g>
<!-- N2&#45;&gt;N1 -->
<g id="edge2" class="edge">
<title>N2&#45;&gt;N1</title>
<path fill="none" stroke="#000000" stroke-width="2" d="M445,-1748.3058C445,-1724.998 445,-1683.7543 445,-1656.2699"/>
<polygon fill="#000000" stroke="#000000" stroke-width="2" points="448.5001,-1656.1263 445,-1646.1263 441.5001,-1656.1264 448.5001,-1656.1263"/>
<text text-anchor="middle" x="455.5" y="-1667.8" font-family="Times,serif" font-size="14.00" fill="#000000">252</text>
</g>
<!-- N4 -->
<g id="node5" class="node">
<title>N4</title>
<polygon fill="none" stroke="#000000" points="471.5,-1474 178.5,-1474 178.5,-1241 471.5,-1241 471.5,-1474"/>
<text text-anchor="middle" x="325" y="-1437.44" font-family="Times,serif" font-size="40.70" fill="#000000">final_project</text>
<text text-anchor="middle" x="325" y="-1392.44" font-family="Times,serif" font-size="40.70" fill="#000000">Array_Distribute</text>
<text text-anchor="middle" x="325" y="-1347.44" font-family="Times,serif" font-size="40.70" fill="#000000">sweep</text>
<text text-anchor="end" x="463.5" y="-1302.44" font-family="Times,serif" font-size="40.70" fill="#000000">108 (42.9%)</text>
<text text-anchor="end" x="463.5" y="-1257.44" font-family="Times,serif" font-size="40.70" fill="#000000">of 148 (58.7%)</text>
</g>
<!-- N3&#45;&gt;N4 -->
<g id="edge4" class="edge">
<title>N3&#45;&gt;N4</title>
<path fill="none" stroke="#000000" stroke-width="2" d="M433.4939,-1524.7614C426.5003,-1513.9796 416.8812,-1499.1501 406.2384,-1482.7426"/>
<polygon fill="#000000" stroke="#000000" stroke-width="2" points="408.9665,-1480.5167 400.5882,-1474.0317 403.0937,-1484.326 408.9665,-1480.5167"/>
<text text-anchor="middle" x="430.5" y="-1495.8" font-family="Times,serif" font-size="14.00" fill="#000000">148</text>
</g>
<!-- N5 -->
<g id="node6" class="node">
<title>N5</title>
<polygon fill="none" stroke="#000000" points="640.5,-1413.5 489.5,-1413.5 489.5,-1301.5 640.5,-1301.5 640.5,-1413.5"/>
<text text-anchor="middle" x="565" y="-1390.54" font-family="Times,serif" font-size="23.70" fill="#000000">main</text>
<text text-anchor="middle" x="565" y="-1364.54" font-family="Times,serif" font-size="23.70" fill="#000000">(inline)</text>
<text text-anchor="end" x="632.5" y="-1338.54" font-family="Times,serif" font-size="23.70" fill="#000000">25 (9.9%)</text>
<text text-anchor="end" x="632.5" y="-1312.54" font-family="Times,serif" font-size="23.70" fill="#000000">of 58 (23.0%)</text>
</g>
<!-- N3&#45;&gt;N5 -->
<g id="edge5" class="edge">
<title>N3&#45;&gt;N5</title>
<path fill="none" stroke="#000000" stroke-width="1.381" stroke-dasharray="5,2" d="M456.5061,-1524.7614C471.7124,-1501.3183 499.3311,-1458.7396 522.8959,-1422.4106"/>
<polygon fill="#000000" stroke="#000000" stroke-width="1.381" points="525.9711,-1424.1011 528.4767,-1413.8068 520.0984,-1420.2917 525.9711,-1424.1011"/>
<text text-anchor="middle" x="485" y="-1495.8" font-family="Times,serif" font-size="14.00" fill="#000000">58</text>
</g>
<!-- N6 -->
<g id="node7" class="node">
<title>N6</title>
<polygon fill="none" stroke="#000000" points="770,-1384 698,-1384 698,-1331 770,-1331 770,-1384"/>
<text text-anchor="middle" x="734" y="-1373.6" font-family="Times,serif" font-size="8.00" fill="#000000">final_project</text>
<text text-anchor="middle" x="734" y="-1364.6" font-family="Times,serif" font-size="8.00" fill="#000000">Array_Distribute</text>
<text text-anchor="middle" x="734" y="-1355.6" font-family="Times,serif" font-size="8.00" fill="#000000">Iexchange</text>
<text text-anchor="end" x="762" y="-1346.6" font-family="Times,serif" font-size="8.00" fill="#000000">0 (0.0%)</text>
<text text-anchor="end" x="762" y="-1337.6" font-family="Times,serif" font-size="8.00" fill="#000000">of 40 (15.9%)</text>
</g>
<!-- N3&#45;&gt;N6 -->
<g id="edge6" class="edge">
<title>N3&#45;&gt;N6</title>
<path fill="none" stroke="#000000" d="M479.9061,-1536.5861C539.4632,-1525.8717 657.2658,-1501.7687 688,-1474 710.9331,-1453.2798 722.5806,-1419.656 728.4051,-1393.8439"/>
<polygon fill="#000000" stroke="#000000" points="731.8378,-1394.527 730.4295,-1384.0262 724.982,-1393.1133 731.8378,-1394.527"/>
<text text-anchor="middle" x="660" y="-1495.8" font-family="Times,serif" font-size="14.00" fill="#000000">40</text>
</g>
<!-- N19 -->
<g id="node20" class="node">
<title>N19</title>
<polygon fill="none" stroke="#000000" points="876.5,-1375 809.5,-1375 809.5,-1340 876.5,-1340 876.5,-1375"/>
<text text-anchor="middle" x="843" y="-1364.6" font-family="Times,serif" font-size="8.00" fill="#000000">MPI_Allreduce</text>
<text text-anchor="end" x="868.5" y="-1355.6" font-family="Times,serif" font-size="8.00" fill="#000000">0 (0.0%)</text>
<text text-anchor="end" x="868.5" y="-1346.6" font-family="Times,serif" font-size="8.00" fill="#000000">of 6 (2.4%)</text>
</g>
<!-- N3&#45;&gt;N19 -->
<g id="edge22" class="edge">
<title>N3&#45;&gt;N19</title>
<path fill="none" stroke="#000000" d="M479.6452,-1539.4327C555.4914,-1532.0911 733.1236,-1511.2883 779,-1474 807.4562,-1450.8708 825.2447,-1411.5677 834.6447,-1385.0816"/>
<polygon fill="#000000" stroke="#000000" points="838.0712,-1385.8736 837.9499,-1375.2794 831.4382,-1383.6369 838.0712,-1385.8736"/>
<text text-anchor="middle" x="745.5" y="-1495.8" font-family="Times,serif" font-size="14.00" fill="#000000">6</text>
</g>
<!-- N7 -->
<g id="node8" class="node">
<title>N7</title>
<polygon fill="none" stroke="#000000" points="423,-1190 215,-1190 215,-1027 423,-1027 423,-1190"/>
<text text-anchor="middle" x="319" y="-1163.68" font-family="Times,serif" font-size="27.90" fill="#000000">final_project</text>
<text text-anchor="middle" x="319" y="-1132.68" font-family="Times,serif" font-size="27.90" fill="#000000">Array_Distribute</text>
<text text-anchor="middle" x="319" y="-1101.68" font-family="Times,serif" font-size="27.90" fill="#000000">sweep</text>
<text text-anchor="middle" x="319" y="-1070.68" font-family="Times,serif" font-size="27.90" fill="#000000">(inline)</text>
<text text-anchor="end" x="415" y="-1039.68" font-family="Times,serif" font-size="27.90" fill="#000000">40 (15.9%)</text>
</g>
<!-- N4&#45;&gt;N7 -->
<g id="edge7" class="edge">
<title>N4&#45;&gt;N7</title>
<path fill="none" stroke="#000000" stroke-dasharray="5,2" d="M322.1845,-1240.6554C321.8601,-1227.1955 321.5329,-1213.6159 321.218,-1200.5489"/>
<polygon fill="#000000" stroke="#000000" points="324.7084,-1200.1043 320.9685,-1190.1915 317.7105,-1200.273 324.7084,-1200.1043"/>
<text text-anchor="middle" x="329" y="-1211.8" font-family="Times,serif" font-size="14.00" fill="#000000">40</text>
</g>
<!-- N5&#45;&gt;N5 -->
<g id="edge1" class="edge">
<title>N5&#45;&gt;N5</title>
<path fill="none" stroke="#000000" stroke-width="2" stroke-dasharray="5,2" d="M640.5725,-1381.3933C651.3009,-1377.5289 658.5,-1369.5645 658.5,-1357.5 658.5,-1349.2057 655.0973,-1342.8493 649.4844,-1338.4308"/>
<polygon fill="#000000" stroke="#000000" stroke-width="2" points="651.0329,-1335.2892 640.5725,-1333.6067 647.7006,-1341.4451 651.0329,-1335.2892"/>
<text text-anchor="middle" x="669" y="-1353.8" font-family="Times,serif" font-size="14.00" fill="#000000">282</text>
</g>
<!-- N12 -->
<g id="node13" class="node">
<title>N12</title>
<polygon fill="none" stroke="#000000" points="805,-64 435,-64 435,0 805,0 805,-64"/>
<text text-anchor="middle" x="620" y="-40" font-family="Times,serif" font-size="25.00" fill="#000000">__memmove_avx_unaligned_erms</text>
<text text-anchor="end" x="797" y="-12" font-family="Times,serif" font-size="25.00" fill="#000000">29 (11.5%)</text>
</g>
<!-- N5&#45;&gt;N12 -->
<g id="edge12" class="edge">
<title>N5&#45;&gt;N12</title>
<path fill="none" stroke="#000000" d="M584.7009,-1301.4151C600.4826,-1251.4517 620,-1176.0135 620,-1108.5 620,-1108.5 620,-1108.5 620,-132.5 620,-113.3932 620,-92.243 620,-74.2939"/>
<polygon fill="#000000" stroke="#000000" points="623.5001,-74.1353 620,-64.1353 616.5001,-74.1353 623.5001,-74.1353"/>
<text text-anchor="middle" x="627" y="-608.8" font-family="Times,serif" font-size="14.00" fill="#000000">23</text>
</g>
<!-- N26 -->
<g id="node27" class="node">
<title>N26</title>
<polygon fill="none" stroke="#000000" points="520,-1130.5 466,-1130.5 466,-1086.5 520,-1086.5 520,-1130.5"/>
<text text-anchor="middle" x="493" y="-1120.1" font-family="Times,serif" font-size="8.00" fill="#000000">operator</text>
<text text-anchor="middle" x="493" y="-1111.1" font-family="Times,serif" font-size="8.00" fill="#000000">new</text>
<text text-anchor="end" x="512" y="-1102.1" font-family="Times,serif" font-size="8.00" fill="#000000">0 (0.0%)</text>
<text text-anchor="end" x="512" y="-1093.1" font-family="Times,serif" font-size="8.00" fill="#000000">of 5 (2.0%)</text>
</g>
<!-- N5&#45;&gt;N26 -->
<g id="edge27" class="edge">
<title>N5&#45;&gt;N26</title>
<path fill="none" stroke="#000000" d="M548.752,-1301.3091C534.3754,-1251.5901 513.9119,-1180.8203 502.1924,-1140.2904"/>
<polygon fill="#000000" stroke="#000000" points="505.5504,-1139.3031 499.4103,-1130.6689 498.8259,-1141.2476 505.5504,-1139.3031"/>
<text text-anchor="middle" x="528.5" y="-1211.8" font-family="Times,serif" font-size="14.00" fill="#000000">5</text>
</g>
<!-- N27 -->
<g id="node28" class="node">
<title>N27</title>
<polygon fill="none" stroke="#000000" points="592,-1126 538,-1126 538,-1091 592,-1091 592,-1126"/>
<text text-anchor="middle" x="565" y="-1115.6" font-family="Times,serif" font-size="8.00" fill="#000000">MPI_Init</text>
<text text-anchor="end" x="584" y="-1106.6" font-family="Times,serif" font-size="8.00" fill="#000000">0 (0.0%)</text>
<text text-anchor="end" x="584" y="-1097.6" font-family="Times,serif" font-size="8.00" fill="#000000">of 4 (1.6%)</text>
</g>
<!-- N5&#45;&gt;N27 -->
<g id="edge28" class="edge">
<title>N5&#45;&gt;N27</title>
<path fill="none" stroke="#000000" d="M565,-1301.3091C565,-1249.9136 565,-1176.0239 565,-1136.2957"/>
<polygon fill="#000000" stroke="#000000" points="568.5001,-1136.0432 565,-1126.0433 561.5001,-1136.0433 568.5001,-1136.0432"/>
<text text-anchor="middle" x="568.5" y="-1211.8" font-family="Times,serif" font-size="14.00" fill="#000000">4</text>
</g>
<!-- N10 -->
<g id="node11" class="node">
<title>N10</title>
<polygon fill="none" stroke="#000000" points="848,-1126 786,-1126 786,-1091 848,-1091 848,-1126"/>
<text text-anchor="middle" x="817" y="-1115.6" font-family="Times,serif" font-size="8.00" fill="#000000">MPI_Waitall</text>
<text text-anchor="end" x="840" y="-1106.6" font-family="Times,serif" font-size="8.00" fill="#000000">0 (0.0%)</text>
<text text-anchor="end" x="840" y="-1097.6" font-family="Times,serif" font-size="8.00" fill="#000000">of 30 (11.9%)</text>
</g>
<!-- N6&#45;&gt;N10 -->
<g id="edge9" class="edge">
<title>N6&#45;&gt;N10</title>
<path fill="none" stroke="#000000" d="M742.8825,-1330.8526C758.7396,-1283.2812 791.7603,-1184.2191 807.8255,-1136.0234"/>
<polygon fill="#000000" stroke="#000000" points="811.2326,-1136.87 811.0745,-1126.2764 804.5918,-1134.6564 811.2326,-1136.87"/>
<text text-anchor="middle" x="789" y="-1211.8" font-family="Times,serif" font-size="14.00" fill="#000000">30</text>
</g>
<!-- N13 -->
<g id="node14" class="node">
<title>N13</title>
<polygon fill="none" stroke="#000000" points="761,-1126 707,-1126 707,-1091 761,-1091 761,-1126"/>
<text text-anchor="middle" x="734" y="-1115.6" font-family="Times,serif" font-size="8.00" fill="#000000">MPI_Isend</text>
<text text-anchor="end" x="753" y="-1106.6" font-family="Times,serif" font-size="8.00" fill="#000000">0 (0.0%)</text>
<text text-anchor="end" x="753" y="-1097.6" font-family="Times,serif" font-size="8.00" fill="#000000">of 8 (3.2%)</text>
</g>
<!-- N6&#45;&gt;N13 -->
<g id="edge13" class="edge">
<title>N6&#45;&gt;N13</title>
<path fill="none" stroke="#000000" d="M734,-1330.8526C734,-1283.381 734,-1184.6342 734,-1136.3272"/>
<polygon fill="#000000" stroke="#000000" points="737.5001,-1136.2763 734,-1126.2764 730.5001,-1136.2764 737.5001,-1136.2763"/>
<text text-anchor="middle" x="737.5" y="-1211.8" font-family="Times,serif" font-size="14.00" fill="#000000">8</text>
</g>
<!-- N7&#45;&gt;N7 -->
<g id="edge32" class="edge">
<title>N7&#45;&gt;N7</title>
<path fill="none" stroke="#000000" stroke-dasharray="5,2" d="M423.1251,-1124.9675C434.0191,-1121.7528 441,-1116.2637 441,-1108.5 441,-1103.2838 437.8487,-1099.0943 432.4766,-1095.9316"/>
<polygon fill="#000000" stroke="#000000" points="433.7019,-1092.6505 423.1251,-1092.0325 431.008,-1099.1114 433.7019,-1092.6505"/>
<text text-anchor="middle" x="444.5" y="-1104.8" font-family="Times,serif" font-size="14.00" fill="#000000">3</text>
</g>
<!-- N8 -->
<g id="node9" class="node">
<title>N8</title>
<polygon fill="none" stroke="#000000" points="916,-587 838,-587 838,-543 916,-543 916,-587"/>
<text text-anchor="middle" x="877" y="-574.12" font-family="Times,serif" font-size="11.10" fill="#000000">opal_progress</text>
<text text-anchor="end" x="908" y="-562.12" font-family="Times,serif" font-size="11.10" fill="#000000">1 (0.4%)</text>
<text text-anchor="end" x="908" y="-550.12" font-family="Times,serif" font-size="11.10" fill="#000000">of 34 (13.5%)</text>
</g>
<!-- N9 -->
<g id="node10" class="node">
<title>N9</title>
<polygon fill="none" stroke="#000000" points="1059.5,-492 694.5,-492 694.5,-406 1059.5,-406 1059.5,-492"/>
<text text-anchor="middle" x="877" y="-469.28" font-family="Times,serif" font-size="23.40" fill="#000000">mca_btl_vader_component_progress</text>
<text text-anchor="end" x="1051.5" y="-443.28" font-family="Times,serif" font-size="23.40" fill="#000000">24 (9.5%)</text>
<text text-anchor="end" x="1051.5" y="-417.28" font-family="Times,serif" font-size="23.40" fill="#000000">of 32 (12.7%)</text>
</g>
<!-- N8&#45;&gt;N9 -->
<g id="edge8" class="edge">
<title>N8&#45;&gt;N9</title>
<path fill="none" stroke="#000000" d="M877,-542.9082C877,-531.3769 877,-516.7235 877,-502.4411"/>
<polygon fill="#000000" stroke="#000000" points="880.5001,-502.1567 877,-492.1568 873.5001,-502.1568 880.5001,-502.1567"/>
<text text-anchor="middle" x="884" y="-513.8" font-family="Times,serif" font-size="14.00" fill="#000000">32</text>
</g>
<!-- N14 -->
<g id="node15" class="node">
<title>N14</title>
<polygon fill="none" stroke="#000000" points="986,-355 768,-355 768,-296 986,-296 986,-355"/>
<text text-anchor="middle" x="877" y="-339" font-family="Times,serif" font-size="15.00" fill="#000000">mca_btl_vader_poll_handle_frag</text>
<text text-anchor="end" x="978" y="-322" font-family="Times,serif" font-size="15.00" fill="#000000">5 (2.0%)</text>
<text text-anchor="end" x="978" y="-305" font-family="Times,serif" font-size="15.00" fill="#000000">of 8 (3.2%)</text>
</g>
<!-- N9&#45;&gt;N14 -->
<g id="edge14" class="edge">
<title>N9&#45;&gt;N14</title>
<path fill="none" stroke="#000000" d="M877,-405.8057C877,-392.6331 877,-378.2186 877,-365.2829"/>
<polygon fill="#000000" stroke="#000000" points="880.5001,-365.2778 877,-355.2778 873.5001,-365.2779 880.5001,-365.2778"/>
<text text-anchor="middle" x="880.5" y="-376.8" font-family="Times,serif" font-size="14.00" fill="#000000">8</text>
</g>
<!-- N11 -->
<g id="node12" class="node">
<title>N11</title>
<polygon fill="none" stroke="#000000" points="892,-916 776,-916 776,-881 892,-881 892,-916"/>
<text text-anchor="middle" x="834" y="-905.6" font-family="Times,serif" font-size="8.00" fill="#000000">ompi_request_default_wait_all</text>
<text text-anchor="end" x="884" y="-896.6" font-family="Times,serif" font-size="8.00" fill="#000000">0 (0.0%)</text>
<text text-anchor="end" x="884" y="-887.6" font-family="Times,serif" font-size="8.00" fill="#000000">of 30 (11.9%)</text>
</g>
<!-- N10&#45;&gt;N11 -->
<g id="edge10" class="edge">
<title>N10&#45;&gt;N11</title>
<path fill="none" stroke="#000000" d="M818.4202,-1090.9567C821.3764,-1054.4384 828.211,-970.0109 831.764,-926.1211"/>
<polygon fill="#000000" stroke="#000000" points="835.2535,-926.3909 832.5719,-916.141 828.2764,-925.826 835.2535,-926.3909"/>
<text text-anchor="middle" x="833" y="-997.8" font-family="Times,serif" font-size="14.00" fill="#000000">30</text>
</g>
<!-- N11&#45;&gt;N8 -->
<g id="edge11" class="edge">
<title>N11&#45;&gt;N8</title>
<path fill="none" stroke="#000000" d="M835.1785,-880.8156C836.3584,-861.5613 838,-829.857 838,-802.5 838,-802.5 838,-802.5 838,-664.5 838,-640.4235 848.0208,-615.1896 857.9034,-596.158"/>
<polygon fill="#000000" stroke="#000000" points="860.9933,-597.8023 862.6993,-587.3457 854.8448,-594.4562 860.9933,-597.8023"/>
<text text-anchor="middle" x="845" y="-755.8" font-family="Times,serif" font-size="14.00" fill="#000000">29</text>
</g>
<!-- N15 -->
<g id="node16" class="node">
<title>N15</title>
<polygon fill="none" stroke="#000000" points="774.5,-972.5 693.5,-972.5 693.5,-937.5 774.5,-937.5 774.5,-972.5"/>
<text text-anchor="middle" x="734" y="-962.1" font-family="Times,serif" font-size="8.00" fill="#000000">mca_pml_ob1_isend</text>
<text text-anchor="end" x="766.5" y="-953.1" font-family="Times,serif" font-size="8.00" fill="#000000">0 (0.0%)</text>
<text text-anchor="end" x="766.5" y="-944.1" font-family="Times,serif" font-size="8.00" fill="#000000">of 8 (3.2%)</text>
</g>
<!-- N13&#45;&gt;N15 -->
<g id="edge15" class="edge">
<title>N13&#45;&gt;N15</title>
<path fill="none" stroke="#000000" d="M734,-1090.8916C734,-1064.5458 734,-1014.6089 734,-983.1598"/>
<polygon fill="#000000" stroke="#000000" points="737.5001,-982.8758 734,-972.8759 730.5001,-982.8759 737.5001,-982.8758"/>
<text text-anchor="middle" x="737.5" y="-997.8" font-family="Times,serif" font-size="14.00" fill="#000000">8</text>
</g>
<!-- N34 -->
<g id="node35" class="node">
<title>N34</title>
<polygon fill="none" stroke="#000000" points="952,-240.5 802,-240.5 802,-205.5 952,-205.5 952,-240.5"/>
<text text-anchor="middle" x="877" y="-230.1" font-family="Times,serif" font-size="8.00" fill="#000000">mca_pml_ob1_recv_frag_callback_match</text>
<text text-anchor="end" x="944" y="-221.1" font-family="Times,serif" font-size="8.00" fill="#000000">0 (0.0%)</text>
<text text-anchor="end" x="944" y="-212.1" font-family="Times,serif" font-size="8.00" fill="#000000">of 3 (1.2%)</text>
</g>
<!-- N14&#45;&gt;N34 -->
<g id="edge36" class="edge">
<title>N14&#45;&gt;N34</title>
<path fill="none" stroke="#000000" d="M877,-295.8528C877,-281.6239 877,-264.6757 877,-250.7081"/>
<polygon fill="#000000" stroke="#000000" points="880.5001,-250.7024 877,-240.7024 873.5001,-250.7025 880.5001,-250.7024"/>
<text text-anchor="middle" x="880.5" y="-266.8" font-family="Times,serif" font-size="14.00" fill="#000000">3</text>
</g>
<!-- N16 -->
<g id="node17" class="node">
<title>N16</title>
<polygon fill="none" stroke="#000000" points="809,-863 657,-863 657,-828 809,-828 809,-863"/>
<text text-anchor="middle" x="733" y="-852.6" font-family="Times,serif" font-size="8.00" fill="#000000">mca_pml_ob1_send_request_start_prepare</text>
<text text-anchor="end" x="801" y="-843.6" font-family="Times,serif" font-size="8.00" fill="#000000">0 (0.0%)</text>
<text text-anchor="end" x="801" y="-834.6" font-family="Times,serif" font-size="8.00" fill="#000000">of 7 (2.8%)</text>
</g>
<!-- N15&#45;&gt;N16 -->
<g id="edge17" class="edge">
<title>N15&#45;&gt;N16</title>
<path fill="none" stroke="#000000" d="M733.8393,-937.4069C733.6812,-920.086 733.4372,-893.3708 733.253,-873.1989"/>
<polygon fill="#000000" stroke="#000000" points="736.7515,-873.017 733.1603,-863.0494 729.7518,-873.081 736.7515,-873.017"/>
<text text-anchor="middle" x="737.5" y="-894.8" font-family="Times,serif" font-size="14.00" fill="#000000">7</text>
</g>
<!-- N18 -->
<g id="node19" class="node">
<title>N18</title>
<polygon fill="none" stroke="#000000" points="770.5,-777 693.5,-777 693.5,-742 770.5,-742 770.5,-777"/>
<text text-anchor="middle" x="732" y="-766.6" font-family="Times,serif" font-size="8.00" fill="#000000">vader_prepare_src</text>
<text text-anchor="end" x="762.5" y="-757.6" font-family="Times,serif" font-size="8.00" fill="#000000">0 (0.0%)</text>
<text text-anchor="end" x="762.5" y="-748.6" font-family="Times,serif" font-size="8.00" fill="#000000">of 7 (2.8%)</text>
</g>
<!-- N16&#45;&gt;N18 -->
<g id="edge16" class="edge">
<title>N16&#45;&gt;N18</title>
<path fill="none" stroke="#000000" d="M732.7928,-827.6807C732.6565,-815.9568 732.4753,-800.3768 732.3206,-787.0697"/>
<polygon fill="#000000" stroke="#000000" points="735.8196,-786.9608 732.2035,-777.0022 728.8201,-787.0422 735.8196,-786.9608"/>
<text text-anchor="middle" x="736.5" y="-798.8" font-family="Times,serif" font-size="14.00" fill="#000000">7</text>
</g>
<!-- N17 -->
<g id="node18" class="node">
<title>N17</title>
<polygon fill="none" stroke="#000000" points="809.5,-691 648.5,-691 648.5,-638 809.5,-638 809.5,-691"/>
<text text-anchor="middle" x="729" y="-676.2" font-family="Times,serif" font-size="13.50" fill="#000000">opal_generic_simple_pack</text>
<text text-anchor="end" x="801.5" y="-661.2" font-family="Times,serif" font-size="13.50" fill="#000000">3 (1.2%)</text>
<text text-anchor="end" x="801.5" y="-646.2" font-family="Times,serif" font-size="13.50" fill="#000000">of 7 (2.8%)</text>
</g>
<!-- N17&#45;&gt;N12 -->
<g id="edge33" class="edge">
<title>N17&#45;&gt;N12</title>
<path fill="none" stroke="#000000" d="M700.4493,-637.7373C683.7803,-619.1499 666,-592.8063 666,-565 666,-565 666,-565 666,-132.5 666,-111.7477 657.7905,-90.5931 648.3077,-73.0799"/>
<polygon fill="#000000" stroke="#000000" points="651.2738,-71.2162 643.2695,-64.2749 645.1981,-74.6927 651.2738,-71.2162"/>
<text text-anchor="middle" x="669.5" y="-321.8" font-family="Times,serif" font-size="14.00" fill="#000000">3</text>
</g>
<!-- N18&#45;&gt;N17 -->
<g id="edge18" class="edge">
<title>N18&#45;&gt;N17</title>
<path fill="none" stroke="#000000" d="M731.4357,-741.6312C731.0786,-730.3239 730.6038,-715.2867 730.1682,-701.4937"/>
<polygon fill="#000000" stroke="#000000" points="733.6594,-701.1555 729.8454,-691.271 726.6629,-701.3765 733.6594,-701.1555"/>
<text text-anchor="middle" x="734.5" y="-712.8" font-family="Times,serif" font-size="14.00" fill="#000000">7</text>
</g>
<!-- N24 -->
<g id="node25" class="node">
<title>N24</title>
<polygon fill="none" stroke="#000000" points="1028,-1126 872,-1126 872,-1091 1028,-1091 1028,-1126"/>
<text text-anchor="middle" x="950" y="-1115.6" font-family="Times,serif" font-size="8.00" fill="#000000">ompi_coll_tuned_allreduce_intra_dec_fixed</text>
<text text-anchor="end" x="1020" y="-1106.6" font-family="Times,serif" font-size="8.00" fill="#000000">0 (0.0%)</text>
<text text-anchor="end" x="1020" y="-1097.6" font-family="Times,serif" font-size="8.00" fill="#000000">of 6 (2.4%)</text>
</g>
<!-- N19&#45;&gt;N24 -->
<g id="edge19" class="edge">
<title>N19&#45;&gt;N24</title>
<path fill="none" stroke="#000000" d="M850.524,-1339.9908C868.8977,-1297.2335 916.1622,-1187.2439 938.2708,-1135.7951"/>
<polygon fill="#000000" stroke="#000000" points="941.6086,-1136.8926 942.3411,-1126.3231 935.1772,-1134.1289 941.6086,-1136.8926"/>
<text text-anchor="middle" x="909.5" y="-1211.8" font-family="Times,serif" font-size="14.00" fill="#000000">6</text>
</g>
<!-- N20 -->
<g id="node21" class="node">
<title>N20</title>
<polygon fill="none" stroke="#000000" points="511.5,-976 368.5,-976 368.5,-934 511.5,-934 511.5,-976"/>
<text text-anchor="middle" x="440" y="-959.44" font-family="Times,serif" font-size="15.70" fill="#000000">__GI___libc_malloc</text>
<text text-anchor="end" x="503.5" y="-942.44" font-family="Times,serif" font-size="15.70" fill="#000000">6 (2.4%)</text>
</g>
<!-- N21 -->
<g id="node22" class="node">
<title>N21</title>
<polygon fill="none" stroke="#000000" points="1045.5,-863 866.5,-863 866.5,-828 1045.5,-828 1045.5,-863"/>
<text text-anchor="middle" x="956" y="-852.6" font-family="Times,serif" font-size="8.00" fill="#000000">ompi_coll_base_allreduce_intra_recursivedoubling</text>
<text text-anchor="end" x="1037.5" y="-843.6" font-family="Times,serif" font-size="8.00" fill="#000000">0 (0.0%)</text>
<text text-anchor="end" x="1037.5" y="-834.6" font-family="Times,serif" font-size="8.00" fill="#000000">of 6 (2.4%)</text>
</g>
<!-- N23 -->
<g id="node24" class="node">
<title>N23</title>
<polygon fill="none" stroke="#000000" points="1004,-777 882,-777 882,-742 1004,-742 1004,-777"/>
<text text-anchor="middle" x="943" y="-766.6" font-family="Times,serif" font-size="8.00" fill="#000000">ompi_coll_base_sendrecv_actual</text>
<text text-anchor="end" x="996" y="-757.6" font-family="Times,serif" font-size="8.00" fill="#000000">0 (0.0%)</text>
<text text-anchor="end" x="996" y="-748.6" font-family="Times,serif" font-size="8.00" fill="#000000">of 6 (2.4%)</text>
</g>
<!-- N21&#45;&gt;N23 -->
<g id="edge23" class="edge">
<title>N21&#45;&gt;N23</title>
<path fill="none" stroke="#000000" d="M953.3064,-827.6807C951.5342,-815.9568 949.179,-800.3768 947.1675,-787.0697"/>
<polygon fill="#000000" stroke="#000000" points="950.6011,-786.3667 945.6457,-777.0022 943.6797,-787.413 950.6011,-786.3667"/>
<text text-anchor="middle" x="953.5" y="-798.8" font-family="Times,serif" font-size="14.00" fill="#000000">6</text>
</g>
<!-- N22 -->
<g id="node23" class="node">
<title>N22</title>
<polygon fill="none" stroke="#000000" points="1021.5,-972.5 886.5,-972.5 886.5,-937.5 1021.5,-937.5 1021.5,-972.5"/>
<text text-anchor="middle" x="954" y="-962.1" font-family="Times,serif" font-size="8.00" fill="#000000">ompi_coll_base_allreduce_intra_ring</text>
<text text-anchor="end" x="1013.5" y="-953.1" font-family="Times,serif" font-size="8.00" fill="#000000">0 (0.0%)</text>
<text text-anchor="end" x="1013.5" y="-944.1" font-family="Times,serif" font-size="8.00" fill="#000000">of 6 (2.4%)</text>
</g>
<!-- N22&#45;&gt;N21 -->
<g id="edge20" class="edge">
<title>N22&#45;&gt;N21</title>
<path fill="none" stroke="#000000" d="M954.3213,-937.4069C954.6377,-920.086 955.1256,-893.3708 955.4941,-873.1989"/>
<polygon fill="#000000" stroke="#000000" points="958.9962,-873.1117 955.6795,-863.0494 951.9973,-872.9838 958.9962,-873.1117"/>
<text text-anchor="middle" x="958.5" y="-894.8" font-family="Times,serif" font-size="14.00" fill="#000000">6</text>
</g>
<!-- N25 -->
<g id="node26" class="node">
<title>N25</title>
<polygon fill="none" stroke="#000000" points="982,-682 878,-682 878,-647 982,-647 982,-682"/>
<text text-anchor="middle" x="930" y="-671.6" font-family="Times,serif" font-size="8.00" fill="#000000">ompi_request_default_wait</text>
<text text-anchor="end" x="974" y="-662.6" font-family="Times,serif" font-size="8.00" fill="#000000">0 (0.0%)</text>
<text text-anchor="end" x="974" y="-653.6" font-family="Times,serif" font-size="8.00" fill="#000000">of 5 (2.0%)</text>
</g>
<!-- N23&#45;&gt;N25 -->
<g id="edge26" class="edge">
<title>N23&#45;&gt;N25</title>
<path fill="none" stroke="#000000" d="M940.5548,-741.6312C938.6664,-727.8313 936.0177,-708.4758 933.8462,-692.6068"/>
<polygon fill="#000000" stroke="#000000" points="937.2578,-691.7218 932.4342,-682.2886 930.3224,-692.6709 937.2578,-691.7218"/>
<text text-anchor="middle" x="941.5" y="-712.8" font-family="Times,serif" font-size="14.00" fill="#000000">5</text>
</g>
<!-- N24&#45;&gt;N22 -->
<g id="edge21" class="edge">
<title>N24&#45;&gt;N22</title>
<path fill="none" stroke="#000000" d="M950.4589,-1090.8916C951.1454,-1064.5458 952.4467,-1014.6089 953.2662,-983.1598"/>
<polygon fill="#000000" stroke="#000000" points="956.7724,-982.9637 953.5342,-972.8759 949.7748,-982.7813 956.7724,-982.9637"/>
<text text-anchor="middle" x="955.5" y="-997.8" font-family="Times,serif" font-size="14.00" fill="#000000">6</text>
</g>
<!-- N25&#45;&gt;N8 -->
<g id="edge25" class="edge">
<title>N25&#45;&gt;N8</title>
<path fill="none" stroke="#000000" d="M920.5247,-646.7114C913.0382,-632.6566 902.408,-612.6999 893.5273,-596.0276"/>
<polygon fill="#000000" stroke="#000000" points="896.595,-594.342 888.8046,-587.1614 890.4168,-597.6329 896.595,-594.342"/>
<text text-anchor="middle" x="908.5" y="-608.8" font-family="Times,serif" font-size="14.00" fill="#000000">5</text>
</g>
<!-- N26&#45;&gt;N20 -->
<g id="edge24" class="edge">
<title>N26&#45;&gt;N20</title>
<path fill="none" stroke="#000000" d="M485.2933,-1086.1798C476.1623,-1059.7341 460.898,-1015.5253 450.6436,-985.8263"/>
<polygon fill="#000000" stroke="#000000" points="453.9463,-984.6675 447.3742,-976.3574 447.3296,-986.9521 453.9463,-984.6675"/>
<text text-anchor="middle" x="461.5" y="-997.8" font-family="Times,serif" font-size="14.00" fill="#000000">5</text>
</g>
<!-- N28 -->
<g id="node29" class="node">
<title>N28</title>
<polygon fill="none" stroke="#000000" points="592,-972.5 530,-972.5 530,-937.5 592,-937.5 592,-972.5"/>
<text text-anchor="middle" x="561" y="-962.1" font-family="Times,serif" font-size="8.00" fill="#000000">ompi_mpi_init</text>
<text text-anchor="end" x="584" y="-953.1" font-family="Times,serif" font-size="8.00" fill="#000000">0 (0.0%)</text>
<text text-anchor="end" x="584" y="-944.1" font-family="Times,serif" font-size="8.00" fill="#000000">of 4 (1.6%)</text>
</g>
<!-- N27&#45;&gt;N28 -->
<g id="edge29" class="edge">
<title>N27&#45;&gt;N28</title>
<path fill="none" stroke="#000000" d="M564.5411,-1090.8916C563.8546,-1064.5458 562.5533,-1014.6089 561.7338,-983.1598"/>
<polygon fill="#000000" stroke="#000000" points="565.2252,-982.7813 561.4658,-972.8759 558.2276,-982.9637 565.2252,-982.7813"/>
<text text-anchor="middle" x="566.5" y="-997.8" font-family="Times,serif" font-size="14.00" fill="#000000">4</text>
</g>
<!-- N35 -->
<g id="node36" class="node">
<title>N35</title>
<polygon fill="none" stroke="#000000" points="586,-863 532,-863 532,-828 586,-828 586,-863"/>
<text text-anchor="middle" x="559" y="-852.6" font-family="Times,serif" font-size="8.00" fill="#000000">orte_init</text>
<text text-anchor="end" x="578" y="-843.6" font-family="Times,serif" font-size="8.00" fill="#000000">0 (0.0%)</text>
<text text-anchor="end" x="578" y="-834.6" font-family="Times,serif" font-size="8.00" fill="#000000">of 3 (1.2%)</text>
</g>
<!-- N28&#45;&gt;N35 -->
<g id="edge35" class="edge">
<title>N28&#45;&gt;N35</title>
<path fill="none" stroke="#000000" d="M560.6787,-937.4069C560.3623,-920.086 559.8744,-893.3708 559.5059,-873.1989"/>
<polygon fill="#000000" stroke="#000000" points="563.0027,-872.9838 559.3205,-863.0494 556.0038,-873.1117 563.0027,-872.9838"/>
<text text-anchor="middle" x="564.5" y="-894.8" font-family="Times,serif" font-size="14.00" fill="#000000">3</text>
</g>
<!-- N29 -->
<g id="node30" class="node">
<title>N29</title>
<polygon fill="none" stroke="#000000" points="576,-582.5 522,-582.5 522,-547.5 576,-547.5 576,-582.5"/>
<text text-anchor="middle" x="549" y="-572.1" font-family="Times,serif" font-size="8.00" fill="#000000">PMIx_Init</text>
<text text-anchor="end" x="568" y="-563.1" font-family="Times,serif" font-size="8.00" fill="#000000">0 (0.0%)</text>
<text text-anchor="end" x="568" y="-554.1" font-family="Times,serif" font-size="8.00" fill="#000000">of 3 (1.2%)</text>
</g>
<!-- N36 -->
<g id="node37" class="node">
<title>N36</title>
<polygon fill="none" stroke="#000000" points="590.5,-466.5 483.5,-466.5 483.5,-431.5 590.5,-431.5 590.5,-466.5"/>
<text text-anchor="middle" x="537" y="-456.1" font-family="Times,serif" font-size="8.00" fill="#000000">pmix_hwloc_setup_topology</text>
<text text-anchor="end" x="582.5" y="-447.1" font-family="Times,serif" font-size="8.00" fill="#000000">0 (0.0%)</text>
<text text-anchor="end" x="582.5" y="-438.1" font-family="Times,serif" font-size="8.00" fill="#000000">of 3 (1.2%)</text>
</g>
<!-- N29&#45;&gt;N36 -->
<g id="edge38" class="edge">
<title>N29&#45;&gt;N36</title>
<path fill="none" stroke="#000000" d="M547.1775,-547.3821C545.2392,-528.6453 542.1462,-498.7467 539.8782,-476.8222"/>
<polygon fill="#000000" stroke="#000000" points="543.3502,-476.3704 538.8397,-466.7837 536.3874,-477.0908 543.3502,-476.3704"/>
<text text-anchor="middle" x="548.5" y="-513.8" font-family="Times,serif" font-size="14.00" fill="#000000">3</text>
</g>
<!-- N30 -->
<g id="node31" class="node">
<title>N30</title>
<polygon fill="none" stroke="#000000" points="591,-682 521,-682 521,-647 591,-647 591,-682"/>
<text text-anchor="middle" x="556" y="-671.6" font-family="Times,serif" font-size="8.00" fill="#000000">ext3x_client_init</text>
<text text-anchor="end" x="583" y="-662.6" font-family="Times,serif" font-size="8.00" fill="#000000">0 (0.0%)</text>
<text text-anchor="end" x="583" y="-653.6" font-family="Times,serif" font-size="8.00" fill="#000000">of 3 (1.2%)</text>
</g>
<!-- N30&#45;&gt;N29 -->
<g id="edge39" class="edge">
<title>N30&#45;&gt;N29</title>
<path fill="none" stroke="#000000" d="M554.7485,-646.7114C553.6934,-631.7133 552.1654,-609.9945 550.95,-592.7179"/>
<polygon fill="#000000" stroke="#000000" points="554.4339,-592.3643 550.2406,-582.6346 547.4511,-592.8556 554.4339,-592.3643"/>
<text text-anchor="middle" x="556.5" y="-608.8" font-family="Times,serif" font-size="14.00" fill="#000000">3</text>
</g>
<!-- N31 -->
<g id="node32" class="node">
<title>N31</title>
<polygon fill="none" stroke="#000000" points="568.5,-245 501.5,-245 501.5,-201 568.5,-201 568.5,-245"/>
<text text-anchor="middle" x="535" y="-234.6" font-family="Times,serif" font-size="8.00" fill="#000000">hwloc_discover</text>
<text text-anchor="middle" x="535" y="-225.6" font-family="Times,serif" font-size="8.00" fill="#000000">(inline)</text>
<text text-anchor="end" x="560.5" y="-216.6" font-family="Times,serif" font-size="8.00" fill="#000000">0 (0.0%)</text>
<text text-anchor="end" x="560.5" y="-207.6" font-family="Times,serif" font-size="8.00" fill="#000000">of 3 (1.2%)</text>
</g>
<!-- N32 -->
<g id="node33" class="node">
<title>N32</title>
<polygon fill="none" stroke="#000000" points="592,-150 472,-150 472,-115 592,-115 592,-150"/>
<text text-anchor="middle" x="532" y="-139.6" font-family="Times,serif" font-size="8.00" fill="#000000">hwloc_discover_by_phase.isra.0</text>
<text text-anchor="end" x="584" y="-130.6" font-family="Times,serif" font-size="8.00" fill="#000000">0 (0.0%)</text>
<text text-anchor="end" x="584" y="-121.6" font-family="Times,serif" font-size="8.00" fill="#000000">of 3 (1.2%)</text>
</g>
<!-- N31&#45;&gt;N32 -->
<g id="edge40" class="edge">
<title>N31&#45;&gt;N32</title>
<path fill="none" stroke="#000000" d="M534.2584,-200.6292C533.8545,-188.4431 533.3509,-173.2527 532.9219,-160.3099"/>
<polygon fill="#000000" stroke="#000000" points="536.4123,-159.9603 532.5828,-150.0818 529.4161,-160.1923 536.4123,-159.9603"/>
<text text-anchor="middle" x="537.5" y="-171.8" font-family="Times,serif" font-size="14.00" fill="#000000">3</text>
</g>
<!-- N33 -->
<g id="node34" class="node">
<title>N33</title>
<polygon fill="none" stroke="#000000" points="579,-343 495,-343 495,-308 579,-308 579,-343"/>
<text text-anchor="middle" x="537" y="-332.6" font-family="Times,serif" font-size="8.00" fill="#000000">hwloc_topology_load</text>
<text text-anchor="end" x="571" y="-323.6" font-family="Times,serif" font-size="8.00" fill="#000000">0 (0.0%)</text>
<text text-anchor="end" x="571" y="-314.6" font-family="Times,serif" font-size="8.00" fill="#000000">of 3 (1.2%)</text>
</g>
<!-- N33&#45;&gt;N31 -->
<g id="edge31" class="edge">
<title>N33&#45;&gt;N31</title>
<path fill="none" stroke="#000000" stroke-dasharray="5,2" d="M536.6516,-307.6459C536.3717,-293.3012 535.9712,-272.7739 535.6347,-255.5267"/>
<polygon fill="#000000" stroke="#000000" points="539.1296,-255.226 535.435,-245.2963 532.1309,-255.3627 539.1296,-255.226"/>
<text text-anchor="middle" x="540.5" y="-266.8" font-family="Times,serif" font-size="14.00" fill="#000000">3</text>
</g>
<!-- N38 -->
<g id="node39" class="node">
<title>N38</title>
<polygon fill="none" stroke="#000000" points="867.5,-150 758.5,-150 758.5,-115 867.5,-115 867.5,-150"/>
<text text-anchor="middle" x="813" y="-139.6" font-family="Times,serif" font-size="8.00" fill="#000000">opal_generic_simple_unpack</text>
<text text-anchor="end" x="859.5" y="-130.6" font-family="Times,serif" font-size="8.00" fill="#000000">0 (0.0%)</text>
<text text-anchor="end" x="859.5" y="-121.6" font-family="Times,serif" font-size="8.00" fill="#000000">of 2 (0.8%)</text>
</g>
<!-- N34&#45;&gt;N38 -->
<g id="edge42" class="edge">
<title>N34&#45;&gt;N38</title>
<path fill="none" stroke="#000000" d="M864.3557,-205.1201C854.9155,-191.7711 841.8754,-173.3316 831.2978,-158.3743"/>
<polygon fill="#000000" stroke="#000000" points="834.0319,-156.1786 825.4003,-150.0348 828.3166,-160.2204 834.0319,-156.1786"/>
<text text-anchor="middle" x="849.5" y="-171.8" font-family="Times,serif" font-size="14.00" fill="#000000">2</text>
</g>
<!-- N37 -->
<g id="node38" class="node">
<title>N37</title>
<polygon fill="none" stroke="#000000" points="586,-777 532,-777 532,-742 586,-742 586,-777"/>
<text text-anchor="middle" x="559" y="-766.6" font-family="Times,serif" font-size="8.00" fill="#000000">rte_init</text>
<text text-anchor="end" x="578" y="-757.6" font-family="Times,serif" font-size="8.00" fill="#000000">0 (0.0%)</text>
<text text-anchor="end" x="578" y="-748.6" font-family="Times,serif" font-size="8.00" fill="#000000">of 3 (1.2%)</text>
</g>
<!-- N35&#45;&gt;N37 -->
<g id="edge34" class="edge">
<title>N35&#45;&gt;N37</title>
<path fill="none" stroke="#000000" d="M559,-827.6807C559,-815.9568 559,-800.3768 559,-787.0697"/>
<polygon fill="#000000" stroke="#000000" points="562.5001,-787.0021 559,-777.0022 555.5001,-787.0022 562.5001,-787.0021"/>
<text text-anchor="middle" x="562.5" y="-798.8" font-family="Times,serif" font-size="14.00" fill="#000000">3</text>
</g>
<!-- N36&#45;&gt;N33 -->
<g id="edge30" class="edge">
<title>N36&#45;&gt;N33</title>
<path fill="none" stroke="#000000" d="M537,-431.3055C537,-410.9462 537,-377.255 537,-353.3653"/>
<polygon fill="#000000" stroke="#000000" points="540.5001,-353.1617 537,-343.1617 533.5001,-353.1617 540.5001,-353.1617"/>
<text text-anchor="middle" x="540.5" y="-376.8" font-family="Times,serif" font-size="14.00" fill="#000000">3</text>
</g>
<!-- N37&#45;&gt;N30 -->
<g id="edge37" class="edge">
<title>N37&#45;&gt;N30</title>
<path fill="none" stroke="#000000" d="M558.4357,-741.6312C557.9999,-727.8313 557.3887,-708.4758 556.8876,-692.6068"/>
<polygon fill="#000000" stroke="#000000" points="560.3757,-692.1732 556.5617,-682.2886 553.3792,-692.3942 560.3757,-692.1732"/>
<text text-anchor="middle" x="561.5" y="-712.8" font-family="Times,serif" font-size="14.00" fill="#000000">3</text>
</g>
<!-- N38&#45;&gt;N12 -->
<g id="edge41" class="edge">
<title>N38&#45;&gt;N12</title>
<path fill="none" stroke="#000000" d="M779.382,-114.9942C755.0112,-102.3038 721.163,-84.6781 690.9254,-68.9327"/>
<polygon fill="#000000" stroke="#000000" points="692.1578,-65.6284 681.6718,-64.114 688.9248,-71.837 692.1578,-65.6284"/>
<text text-anchor="middle" x="742.5" y="-85.8" font-family="Times,serif" font-size="14.00" fill="#000000">2</text>
</g>
</g>
</g></svg>
